<svg width="1600" height="2000" viewBox="0 0 1600 2000" fill="none" xmlns="http://www.w3.org/2000/svg">
  <rect width="1600" height="2000" fill="#102113"/>
  <rect width="1600" height="2000" fill="url(#paint0_radial_1)"/>
  <rect width="1600" height="2000" fill="url(#paint1_linear_1)"/>
  <circle cx="1180" cy="418" r="286" fill="#8E866A" fill-opacity="0.2"/>
  <circle cx="348" cy="1540" r="404" fill="#F5F2ED" fill-opacity="0.08"/>
  <path d="M1087 248C1017 304 968 406 962 530C954 677 1048 868 1163 959" stroke="#F5F2ED" stroke-opacity="0.38" stroke-width="2"/>
  <path d="M1231 315C1127 390 1071 549 1108 715C1134 829 1208 935 1294 1004" stroke="#8E866A" stroke-opacity="0.5" stroke-width="2"/>
  <g filter="url(#filter0_f_1)">
    <ellipse cx="720" cy="624" rx="374" ry="298" fill="#274429"/>
  </g>
  <rect x="642" y="594" width="322" height="870" rx="112" fill="url(#paint2_linear_1)"/>
  <rect x="707" y="448" width="192" height="206" rx="48" fill="url(#paint3_linear_1)"/>
  <rect x="742" y="354" width="122" height="104" rx="24" fill="#CFC7B0"/>
  <rect x="664" y="617" width="278" height="824" rx="96" stroke="#F5F2ED" stroke-opacity="0.36" stroke-width="8"/>
  <path d="M800 804C734 804 680 858 680 924V1237C680 1324 745 1394 825 1394C898 1394 960 1337 960 1265V924C960 858 906 804 840 804H800Z" fill="#F5F2ED" fill-opacity="0.1"/>
  <path d="M572 1678C756 1576 975 1569 1190 1678" stroke="#8E866A" stroke-opacity="0.58" stroke-width="3"/>
  <defs>
    <filter id="filter0_f_1" x="146" y="126" width="1148" height="996" filterUnits="userSpaceOnUse" color-interpolation-filters="sRGB">
      <feFlood flood-opacity="0" result="BackgroundImageFix"/>
      <feBlend mode="normal" in="SourceGraphic" in2="BackgroundImageFix" result="shape"/>
      <feGaussianBlur stdDeviation="100" result="effect1_foregroundBlur_1"/>
    </filter>
    <radialGradient id="paint0_radial_1" cx="0" cy="0" r="1" gradientUnits="userSpaceOnUse" gradientTransform="translate(1178 352) rotate(109.991) scale(1177.55 1174.79)">
      <stop stop-color="#324B30"/>
      <stop offset="1" stop-color="#102113" stop-opacity="0"/>
    </radialGradient>
    <linearGradient id="paint1_linear_1" x1="150" y1="165" x2="1398" y2="1887" gradientUnits="userSpaceOnUse">
      <stop stop-color="#173119"/>
      <stop offset="0.56" stop-color="#102113"/>
      <stop offset="1" stop-color="#8E866A" stop-opacity="0.66"/>
    </linearGradient>
    <linearGradient id="paint2_linear_1" x1="803" y1="594" x2="803" y2="1464" gradientUnits="userSpaceOnUse">
      <stop stop-color="#1A331D"/>
      <stop offset="0.55" stop-color="#254026"/>
      <stop offset="1" stop-color="#A29472"/>
    </linearGradient>
    <linearGradient id="paint3_linear_1" x1="803" y1="448" x2="803" y2="654" gradientUnits="userSpaceOnUse">
      <stop stop-color="#F5F2ED" stop-opacity="0.82"/>
      <stop offset="1" stop-color="#A29472" stop-opacity="0.92"/>
    </linearGradient>
  </defs>
</svg>
