<svg width="160" height="160" viewBox="0 0 160 160" fill="none" xmlns="http://www.w3.org/2000/svg">
  <rect width="160" height="160" rx="80" fill="transparent"/>
  <path d="M86.992 35.99C78.58 35.99 70.834 39.16 65.126 45.014C59.562 50.724 56.73 58.278 56.73 66.596C56.73 75.842 60.088 82.342 66.982 85.902C62.216 87.642 57.84 90.302 54.202 94.406C48.732 100.556 45.99 108.198 45.99 116.524C45.99 125.66 49.562 133.316 56.292 138.622C62.958 143.864 71.654 146.544 81.982 146.544C95.48 146.544 106.42 141.276 114.748 130.796L111.54 127.62C104.406 135.666 95.708 139.708 84.802 139.708C77.112 139.708 70.742 137.616 65.908 133.44C61.002 129.262 58.562 123.468 58.562 116.104C58.562 109.156 60.814 103.106 65.304 98.058C69.838 92.946 75.616 89.944 82.524 89.154C86.942 95.218 92.52 100.168 98.98 103.592C97.952 112.88 95.434 120.154 91.566 125.318L96.246 128.654C100.84 122.796 103.722 114.862 104.8 104.864C108.826 106.476 113.22 107.27 117.916 107.27C124.214 107.27 129.926 105.584 134.914 102.224L132.064 97.554C128.088 100.14 123.792 101.438 119.12 101.438C114.37 101.438 109.808 100.42 105.536 98.364C105.634 95.96 105.678 93.494 105.678 90.984C105.678 80.36 103.944 70.942 100.468 63.04C109.268 60.03 115.78 52.218 117.738 41.598L112.302 40.612C110.714 49.226 105.556 55.232 98.138 57.378C95.344 52.418 91.54 48.214 86.992 45.07V35.99ZM82.02 43.318C87.296 46.214 91.662 50.24 94.99 55.14C90.868 55.51 86.694 56.514 82.56 58.136C75.708 60.802 69.69 64.962 64.81 70.39C63.804 68.164 63.29 65.736 63.29 63.122C63.29 57.1 65.394 51.674 69.6 47.092C73.752 42.662 79.132 40.222 85.538 39.79L82.02 43.318ZM76.062 84.392C71.392 81.416 69.072 76.522 69.072 69.698C69.072 66.852 69.554 64.2 70.484 61.714C74.31 57.804 79.082 54.806 84.624 52.606C88.948 50.9 93.272 49.918 97.432 49.67C101.094 57.104 102.912 66.254 102.912 76.904C102.912 82.486 102.508 87.47 101.664 91.79C91.61 86.7 83.888 79.862 78.604 71.444L75.182 73.574C78.216 78.48 81.844 82.714 86.002 86.28C82.566 86.6 79.142 85.968 76.062 84.392Z" fill="#8E866A"/>
  <path d="M96.742 43.336C104.374 43.336 110.94 46.048 116.392 51.428C121.84 56.742 124.608 63.16 124.608 70.688C124.608 77.822 121.978 83.802 116.846 88.478C111.718 93.086 105.108 95.472 97.186 95.472H92.72V90.096H96.928C103.242 90.096 108.28 88.326 111.934 84.846C115.522 81.302 117.334 76.782 117.334 71.168C117.334 65.376 115.43 60.558 111.652 56.854C107.942 53.146 103.15 51.246 97.304 51.246C91.214 51.246 86.25 53.118 82.56 56.822L79.726 52.864C84.078 46.53 89.818 43.336 96.742 43.336Z" fill="#8E866A"/>
</svg>
