<svg width="1400" height="1600" viewBox="0 0 1400 1600" fill="none" xmlns="http://www.w3.org/2000/svg">
  <rect width="1400" height="1600" fill="#EDE9E0"/>
  <rect width="1400" height="1600" fill="url(#paint0_linear_2)"/>
  <circle cx="1032" cy="304" r="236" fill="#8E866A" fill-opacity="0.25"/>
  <circle cx="320" cy="1280" r="326" fill="#132616" fill-opacity="0.12"/>
  <path d="M764 109C925 260 984 432 942 622C898 814 740 978 505 1143" stroke="#132616" stroke-opacity="0.18" stroke-width="3"/>
  <path d="M953 491C853 515 757 576 676 674C561 814 511 982 531 1186" stroke="#8E866A" stroke-opacity="0.4" stroke-width="2"/>
  <g filter="url(#filter0_f_2)">
    <ellipse cx="624" cy="824" rx="372" ry="266" fill="#B6AA8B" fill-opacity="0.5"/>
  </g>
  <path d="M702 472C859 472 986 599 986 756C986 913 859 1040 702 1040C545 1040 418 913 418 756C418 599 545 472 702 472Z" fill="#F5F2ED" fill-opacity="0.82"/>
  <path d="M701 338C873 338 1012 477 1012 649C1012 699 1000 747 978 790C932 723 859 668 771 642C681 616 575 622 471 673C434 692 402 715 375 742C377 520 527 338 701 338Z" fill="#132616" fill-opacity="0.12"/>
  <path d="M701 546C818 546 913 641 913 758C913 875 818 970 701 970C584 970 489 875 489 758C489 641 584 546 701 546Z" fill="#132616" fill-opacity="0.08"/>
  <rect x="626" y="676" width="150" height="314" rx="72" fill="url(#paint1_linear_2)"/>
  <rect x="656" y="592" width="90" height="104" rx="24" fill="#8E866A"/>
  <rect x="641" y="612" width="120" height="60" rx="18" stroke="#F5F2ED" stroke-opacity="0.5" stroke-width="4"/>
  <defs>
    <filter id="filter0_f_2" x="52" y="358" width="1144" height="932" filterUnits="userSpaceOnUse" color-interpolation-filters="sRGB">
      <feFlood flood-opacity="0" result="BackgroundImageFix"/>
      <feBlend mode="normal" in="SourceGraphic" in2="BackgroundImageFix" result="shape"/>
      <feGaussianBlur stdDeviation="100" result="effect1_foregroundBlur_2"/>
    </filter>
    <linearGradient id="paint0_linear_2" x1="142" y1="134" x2="1182" y2="1518" gradientUnits="userSpaceOnUse">
      <stop stop-color="#F5F2ED"/>
      <stop offset="0.52" stop-color="#E9E0D4"/>
      <stop offset="1" stop-color="#D4C8AF"/>
    </linearGradient>
    <linearGradient id="paint1_linear_2" x1="701" y1="676" x2="701" y2="990" gradientUnits="userSpaceOnUse">
      <stop stop-color="#243C27"/>
      <stop offset="1" stop-color="#8E866A"/>
    </linearGradient>
  </defs>
</svg>
